<svg xmlns="http://www.w3.org/2000/svg" viewBox="0 0 128 128">
  <defs>
    <linearGradient id="bgGradient" x1="0%" y1="0%" x2="100%" y2="100%">
      <stop offset="0%" style="stop-color:#4F46E5;stop-opacity:1" />
      <stop offset="100%" style="stop-color:#2563eb;stop-opacity:1" />
    </linearGradient>
  </defs>

  <!-- Fondo con gradiente -->
  <rect width="128" height="128" rx="24" fill="url(#bgGradient)"/>

  <!-- Líneas de velocidad -->
  <rect x="12" y="58" width="12" height="4" rx="2" fill="white" opacity="0.8"/>
  <rect x="28" y="58" width="8" height="4" rx="2" fill="white" opacity="0.8"/>

  <!-- Marco del documento -->
  <rect x="42" y="20" width="58" height="88" rx="8" fill="none" stroke="white" stroke-width="5"/>

  <!-- Líneas del documento -->
  <rect x="50" y="32" width="18" height="2.5" rx="1.25" fill="white" opacity="0.9"/>
  <rect x="50" y="42" width="35" height="2.5" rx="1.25" fill="white" opacity="0.9"/>

  <!-- Rayo central -->
  <path d="M 68 50 L 62 68 L 70 68 L 65 85 L 78 66 L 70 66 Z" fill="white"/>

  <!-- Letra R -->
  <path d="M 85 38 Q 108 38 110 52 Q 110 60 104 65 L 116 90 L 106 98 L 96 72 Q 100 69 100 62 Q 100 48 88 48 L 88 98 L 80 98 L 80 38 Z" fill="white"/>

  <!-- Punto azul claro -->
  <circle cx="104" cy="92" r="5" fill="#60a5fa"/>
</svg>

